<mxfile host="app.diagrams.net" modified="2021-04-30T07:40:29.732Z" agent="5.0 (Windows NT 10.0; Win64; x64) AppleWebKit/537.36 (KHTML, like Gecko) Chrome/90.0.4430.93 Safari/537.36" etag="glXzLd6K-0FCgPuEpdN7" version="14.6.9" type="github">
  <diagram id="eQVVE33Jv_LMTThVe1AR" name="Page-1">
    <mxGraphModel dx="1038" dy="580" grid="1" gridSize="10" guides="1" tooltips="1" connect="1" arrows="1" fold="1" page="1" pageScale="1" pageWidth="827" pageHeight="1169" math="0" shadow="0">
      <root>
        <mxCell id="0" />
        <mxCell id="1" parent="0" />
        <mxCell id="_S5MrxZ2PgfGh_rQurS7-27" value="" style="rounded=0;whiteSpace=wrap;html=1;" vertex="1" parent="1">
          <mxGeometry x="50" y="210" width="660" height="370" as="geometry" />
        </mxCell>
        <mxCell id="_S5MrxZ2PgfGh_rQurS7-11" value="POS 단말기 서버" style="rounded=0;whiteSpace=wrap;html=1;verticalAlign=top;fillColor=#fff2cc;strokeColor=#d6b656;" vertex="1" parent="1">
          <mxGeometry x="80" y="250" width="590" height="290" as="geometry" />
        </mxCell>
        <mxCell id="_S5MrxZ2PgfGh_rQurS7-1" value="주문 서비스" style="rounded=0;whiteSpace=wrap;html=1;" vertex="1" parent="1">
          <mxGeometry x="150" y="310" width="120" height="60" as="geometry" />
        </mxCell>
        <mxCell id="_S5MrxZ2PgfGh_rQurS7-2" value="알림 서비스" style="rounded=0;whiteSpace=wrap;html=1;" vertex="1" parent="1">
          <mxGeometry x="484" y="310" width="120" height="60" as="geometry" />
        </mxCell>
        <mxCell id="_S5MrxZ2PgfGh_rQurS7-3" value="" style="aspect=fixed;html=1;points=[];align=center;image;fontSize=12;image=img/lib/mscae/Docker.svg;" vertex="1" parent="1">
          <mxGeometry x="450" y="290" width="50" height="41" as="geometry" />
        </mxCell>
        <mxCell id="_S5MrxZ2PgfGh_rQurS7-4" value="" style="aspect=fixed;html=1;points=[];align=center;image;fontSize=12;image=img/lib/mscae/Docker.svg;" vertex="1" parent="1">
          <mxGeometry x="120" y="290" width="50" height="41" as="geometry" />
        </mxCell>
        <mxCell id="_S5MrxZ2PgfGh_rQurS7-7" value="" style="aspect=fixed;html=1;points=[];align=center;image;fontSize=12;image=img/lib/mscae/Docker.svg;" vertex="1" parent="1">
          <mxGeometry x="150" y="400" width="50" height="41" as="geometry" />
        </mxCell>
        <mxCell id="_S5MrxZ2PgfGh_rQurS7-8" value="" style="aspect=fixed;html=1;points=[];align=center;image;fontSize=12;image=img/lib/mscae/Docker.svg;" vertex="1" parent="1">
          <mxGeometry x="480" y="400" width="50" height="41" as="geometry" />
        </mxCell>
        <mxCell id="_S5MrxZ2PgfGh_rQurS7-9" value="" style="endArrow=classic;startArrow=classic;html=1;entryX=0.5;entryY=1;entryDx=0;entryDy=0;exitX=0.5;exitY=0;exitDx=0;exitDy=0;" edge="1" parent="1" target="_S5MrxZ2PgfGh_rQurS7-2">
          <mxGeometry width="50" height="50" relative="1" as="geometry">
            <mxPoint x="544" y="420" as="sourcePoint" />
            <mxPoint x="570" y="300" as="targetPoint" />
          </mxGeometry>
        </mxCell>
        <mxCell id="_S5MrxZ2PgfGh_rQurS7-10" value="" style="endArrow=classic;startArrow=classic;html=1;entryX=0.5;entryY=1;entryDx=0;entryDy=0;exitX=0.5;exitY=0;exitDx=0;exitDy=0;" edge="1" parent="1" target="_S5MrxZ2PgfGh_rQurS7-1">
          <mxGeometry width="50" height="50" relative="1" as="geometry">
            <mxPoint x="210" y="420" as="sourcePoint" />
            <mxPoint x="444" y="380" as="targetPoint" />
            <Array as="points" />
          </mxGeometry>
        </mxCell>
        <mxCell id="_S5MrxZ2PgfGh_rQurS7-12" value="" style="aspect=fixed;html=1;points=[];align=center;image;fontSize=12;image=img/lib/azure2/databases/Azure_Database_MySQL_Server.svg;" vertex="1" parent="1">
          <mxGeometry x="186" y="420" width="48" height="64" as="geometry" />
        </mxCell>
        <mxCell id="_S5MrxZ2PgfGh_rQurS7-13" value="" style="aspect=fixed;html=1;points=[];align=center;image;fontSize=12;image=img/lib/azure2/databases/Azure_Database_MySQL_Server.svg;" vertex="1" parent="1">
          <mxGeometry x="520" y="420" width="48" height="64" as="geometry" />
        </mxCell>
        <mxCell id="_S5MrxZ2PgfGh_rQurS7-16" value="" style="points=[[0,0,0],[0.25,0,0],[0.5,0,0],[0.75,0,0],[1,0,0],[0,1,0],[0.25,1,0],[0.5,1,0],[0.75,1,0],[1,1,0],[0,0.25,0],[0,0.5,0],[0,0.75,0],[1,0.25,0],[1,0.5,0],[1,0.75,0]];outlineConnect=0;fontColor=#232F3E;gradientColor=#945DF2;gradientDirection=north;fillColor=#5A30B5;strokeColor=#ffffff;dashed=0;verticalLabelPosition=bottom;verticalAlign=top;align=center;html=1;fontSize=12;fontStyle=0;aspect=fixed;shape=mxgraph.aws4.resourceIcon;resIcon=mxgraph.aws4.managed_streaming_for_kafka;" vertex="1" parent="1">
          <mxGeometry x="348" y="407" width="34" height="34" as="geometry" />
        </mxCell>
        <mxCell id="_S5MrxZ2PgfGh_rQurS7-18" value="" style="endArrow=classic;startArrow=classic;html=1;" edge="1" parent="1">
          <mxGeometry width="50" height="50" relative="1" as="geometry">
            <mxPoint x="270" y="451.5" as="sourcePoint" />
            <mxPoint x="460" y="451.5" as="targetPoint" />
          </mxGeometry>
        </mxCell>
        <mxCell id="_S5MrxZ2PgfGh_rQurS7-20" value="Kafka" style="text;html=1;align=center;verticalAlign=middle;resizable=0;points=[];autosize=1;strokeColor=none;" vertex="1" parent="1">
          <mxGeometry x="340" y="385" width="50" height="20" as="geometry" />
        </mxCell>
        <mxCell id="_S5MrxZ2PgfGh_rQurS7-22" value="" style="endArrow=classic;html=1;exitX=0.5;exitY=0;exitDx=0;exitDy=0;" edge="1" parent="1" source="_S5MrxZ2PgfGh_rQurS7-2">
          <mxGeometry width="50" height="50" relative="1" as="geometry">
            <mxPoint x="420" y="160" as="sourcePoint" />
            <mxPoint x="544" y="180" as="targetPoint" />
          </mxGeometry>
        </mxCell>
        <mxCell id="_S5MrxZ2PgfGh_rQurS7-23" value="" style="endArrow=classic;html=1;entryX=0.5;entryY=0;entryDx=0;entryDy=0;" edge="1" parent="1" target="_S5MrxZ2PgfGh_rQurS7-1">
          <mxGeometry width="50" height="50" relative="1" as="geometry">
            <mxPoint x="210" y="180" as="sourcePoint" />
            <mxPoint x="470" y="110" as="targetPoint" />
          </mxGeometry>
        </mxCell>
        <mxCell id="_S5MrxZ2PgfGh_rQurS7-25" value="" style="verticalLabelPosition=bottom;verticalAlign=top;html=1;shadow=0;dashed=0;strokeWidth=1;shape=mxgraph.android.phone2;strokeColor=#23445d;direction=south;fillColor=#bac8d3;" vertex="1" parent="1">
          <mxGeometry x="150" y="20" width="470" height="150" as="geometry" />
        </mxCell>
        <mxCell id="_S5MrxZ2PgfGh_rQurS7-26" value="" style="outlineConnect=0;dashed=0;verticalLabelPosition=bottom;verticalAlign=top;align=center;html=1;shape=mxgraph.aws3.ec2;fillColor=#F58534;gradientColor=none;" vertex="1" parent="1">
          <mxGeometry x="20" y="140" width="76.5" height="93" as="geometry" />
        </mxCell>
        <mxCell id="_S5MrxZ2PgfGh_rQurS7-29" style="edgeStyle=orthogonalEdgeStyle;rounded=0;orthogonalLoop=1;jettySize=auto;html=1;exitX=0.5;exitY=1;exitDx=0;exitDy=0;entryX=0.515;entryY=0.987;entryDx=0;entryDy=0;entryPerimeter=0;" edge="1" parent="1" source="_S5MrxZ2PgfGh_rQurS7-27" target="_S5MrxZ2PgfGh_rQurS7-27">
          <mxGeometry relative="1" as="geometry" />
        </mxCell>
      </root>
    </mxGraphModel>
  </diagram>
</mxfile>
